<svg version="1.1" id="Layer_1" xmlns="http://www.w3.org/2000/svg" xmlns:xlink="http://www.w3.org/1999/xlink" x="0px" y="0px"
	 width="100%" viewBox="0 0 612 306" enable-background="new 0 0 612 306" xml:space="preserve">
<path fill="#1D2E59" opacity="1.000000" stroke="none" 
	d="
M248.000000,307.000000 
	C165.756561,307.000000 83.513115,307.000000 1.000000,307.000000 
	C1.000000,255.979416 1.000000,204.958374 1.408601,153.424683 
	C12.069843,152.407135 22.506481,150.448837 32.534489,151.718353 
	C50.109238,153.943222 67.577477,157.542664 84.831734,161.652039 
	C118.129021,169.582367 151.253082,178.177963 185.287094,182.608398 
	C205.994019,185.304001 226.834122,186.357132 247.511063,184.483856 
	C270.783386,182.375412 293.893768,178.359726 317.017853,174.804565 
	C324.509155,173.652817 331.821564,171.337036 339.646454,169.518372 
	C342.056885,169.239014 344.070831,169.151108 346.011108,168.726547 
	C363.055145,164.997101 380.054504,161.057480 397.127563,157.467636 
	C431.360962,150.269608 465.798950,144.635605 500.948059,145.035248 
	C539.705994,145.475937 576.534119,153.411743 610.311096,173.211929 
	C611.092712,173.670151 612.098694,173.745865 613.000000,174.000000 
	C613.000000,184.020889 613.000000,194.041794 612.584717,204.555878 
	C606.495300,206.809387 600.392395,207.757965 595.228760,210.485001 
	C580.803833,218.103226 565.927246,219.516434 550.182556,216.223679 
	C535.385925,213.129181 520.601318,209.600754 505.626282,207.818939 
	C479.749969,204.740082 454.579224,208.235184 430.481720,218.774124 
	C415.129639,225.488327 402.343170,235.811096 389.842468,246.550644 
	C373.451111,260.632721 355.069977,267.159119 333.196228,264.449249 
	C317.885071,262.552338 302.633728,263.523865 288.499237,271.270447 
	C272.278625,280.160400 259.563843,292.897430 248.000000,307.000000 
z"/>
<path fill="#F5AB9E" opacity="1.000000" stroke="none" 
	d="
M1.000000,133.000000 
	C1.000000,89.022079 1.000000,45.044159 1.000003,1.064720 
	C205.000015,1.063201 409.000000,1.063201 613.000000,1.063201 
	C613.000000,43.438496 613.000000,85.750587 612.622864,128.457886 
	C589.196533,122.027069 565.484314,118.884109 541.636536,117.205429 
	C524.747498,116.016579 507.743042,115.872696 490.805084,116.156425 
	C476.392731,116.397865 461.989838,117.768250 447.605591,118.923462 
	C438.362213,119.665810 429.160156,120.923019 420.019562,121.539986 
	C418.602356,108.462280 413.341187,97.110039 407.026123,86.344833 
	C377.764343,36.462669 315.678772,15.152411 262.584503,38.138157 
	C218.180954,57.361488 194.514252,92.369682 190.580780,140.772308 
	C127.555107,127.767914 64.496208,125.065918 1.000000,133.000000 
z"/>
<path fill="#DC882B" opacity="1.000000" stroke="none" 
	d="
M248.468658,307.000000 
	C259.563843,292.897430 272.278625,280.160400 288.499237,271.270447 
	C302.633728,263.523865 317.885071,262.552338 333.196228,264.449249 
	C355.069977,267.159119 373.451111,260.632721 389.842468,246.550644 
	C402.343170,235.811096 415.129639,225.488327 430.481720,218.774124 
	C454.579224,208.235184 479.749969,204.740082 505.626282,207.818939 
	C520.601318,209.600754 535.385925,213.129181 550.182556,216.223679 
	C565.927246,219.516434 580.803833,218.103226 595.228760,210.485001 
	C600.392395,207.757965 606.495300,206.809387 612.584717,205.024536 
	C613.000000,238.968124 613.000000,272.936249 613.000000,307.000000 
	C491.645782,307.000000 370.291565,307.000000 248.468658,307.000000 
z"/>
<path fill="#F8DFD9" opacity="1.000000" stroke="none" 
	d="
M419.939575,121.949448 
	C429.160156,120.923019 438.362213,119.665810 447.605591,118.923462 
	C461.989838,117.768250 476.392731,116.397865 490.805084,116.156425 
	C507.743042,115.872696 524.747498,116.016579 541.636536,117.205429 
	C565.484314,118.884109 589.196533,122.027069 612.622864,128.926544 
	C613.000000,143.687561 613.000000,158.375122 613.000000,173.531342 
	C612.098694,173.745865 611.092712,173.670151 610.311096,173.211929 
	C576.534119,153.411743 539.705994,145.475937 500.948059,145.035248 
	C465.798950,144.635605 431.360962,150.269608 397.127563,157.467636 
	C380.054504,161.057480 363.055145,164.997101 346.011108,168.726547 
	C344.070831,169.151108 342.056885,169.239014 339.177155,169.369049 
	C312.110931,168.300339 286.333618,164.475708 261.115112,158.542831 
	C297.120636,149.246613 332.733032,139.779694 368.568024,131.247894 
	C385.471649,127.223389 402.802368,124.992851 419.939575,121.949448 
z"/>
<path fill="#854D34" opacity="1.000000" stroke="none" 
	d="
M260.813263,158.755585 
	C286.333618,164.475708 312.110931,168.300339 338.746490,169.404388 
	C331.821564,171.337036 324.509155,173.652817 317.017853,174.804565 
	C293.893768,178.359726 270.783386,182.375412 247.511063,184.483856 
	C226.834122,186.357132 205.994019,185.304001 185.287094,182.608398 
	C151.253082,178.177963 118.129021,169.582367 84.831734,161.652039 
	C67.577477,157.542664 50.109238,153.943222 32.534489,151.718353 
	C22.506481,150.448837 12.069843,152.407135 1.408601,152.956024 
	C1.000000,146.645599 1.000000,140.291214 1.000000,133.468414 
	C64.496208,125.065918 127.555107,127.767914 190.957306,140.898178 
	C214.754074,146.930344 237.783661,152.842972 260.813263,158.755585 
z"/>
<path fill="#EF5729" opacity="1.000000" stroke="none" 
	d="
M261.115112,158.542831 
	C237.783661,152.842972 214.754074,146.930344 191.347931,140.891846 
	C194.514252,92.369682 218.180954,57.361488 262.584503,38.138157 
	C315.678772,15.152411 377.764343,36.462669 407.026123,86.344833 
	C413.341187,97.110039 418.602356,108.462280 420.019562,121.539986 
	C402.802368,124.992851 385.471649,127.223389 368.568024,131.247894 
	C332.733032,139.779694 297.120636,149.246613 261.115112,158.542831 
z"/>
</svg>