<?xml version="1.0" standalone="no"?><svg xmlns="http://www.w3.org/2000/svg" viewBox="0 0 1440 320"><path fill="#ff5500" fill-opacity="1" d="M0,224L18.5,192C36.9,160,74,96,111,90.7C147.7,85,185,139,222,165.3C258.5,192,295,192,332,170.7C369.2,149,406,107,443,117.3C480,128,517,192,554,229.3C590.8,267,628,277,665,261.3C701.5,245,738,203,775,192C812.3,181,849,203,886,197.3C923.1,192,960,160,997,133.3C1033.8,107,1071,85,1108,64C1144.6,43,1182,21,1218,48C1255.4,75,1292,149,1329,202.7C1366.2,256,1403,288,1422,304L1440,320L1440,320L1421.5,320C1403.1,320,1366,320,1329,320C1292.3,320,1255,320,1218,320C1181.5,320,1145,320,1108,320C1070.8,320,1034,320,997,320C960,320,923,320,886,320C849.2,320,812,320,775,320C738.5,320,702,320,665,320C627.7,320,591,320,554,320C516.9,320,480,320,443,320C406.2,320,369,320,332,320C295.4,320,258,320,222,320C184.6,320,148,320,111,320C73.8,320,37,320,18,320L0,320Z"></path></svg>